# xmcd
#
# Track frame offsets:
#	150
#	24333
#	45856
#	63727
#	81735
#	103627
#	123722
#	152797
#	170529
#	193586
#	218611
#	242771
#	271076
#
# Disc length: 4060 seconds
# Revision: 0
# Processed by: cddbd v1.5.2PL0 Copyright (c) Steve Scherf et al.
# Submitted via: dBpowerAMP V12.0
#
DISCID=b10fda0d
DTITLE=God Forbid - Earthsblood
DYEAR=2009
DGENRE=Metal
TTITLE0=Force Fed
TTITLE1=Chains of Humanity
TTITLE2=Divide My Destiny
TTITLE3=Go Your Own Way
TTITLE4=Anti-Hero
TTITLE5=Better Days
TTITLE6=Lonely Dead
TTITLE7=Reject the Sickness
TTITLE8=Gone Forever
TTITLE9=Broken Promise
TTITLE10=To the Fallen Hero
TTITLE11=The End of the World
TTITLE12=Crucify Your Beliefs
EXTD=
EXTT0=
EXTT1=
EXTT2=
EXTT3=
EXTT4=
EXTT5=
EXTT6=
EXTT7=
EXTT8=
EXTT9=
EXTT10=
EXTT11=
EXTT12=
PLAYORDER=
